Coordinates
version=1
nRows=19
nColumns=24
inDegrees=yes

Units are S.I. units (second, meters, Newtons, ...)
Angles are in degrees.

endheader
time	pelvis_tilt	pelvis_list	pelvis_rotation	pelvis_tx	pelvis_ty	pelvis_tz	hip_flexion_r	hip_adduction_r	hip_rotation_r	knee_angle_r	ankle_angle_r	subtalar_angle_r	mtp_angle_r	hip_flexion_l	hip_adduction_l	hip_rotation_l	knee_angle_l	ankle_angle_l	subtalar_angle_l	mtp_angle_l	lumbar_extension	lumbar_bending	lumbar_rotation
      5.01500000	     -8.84619965	      7.31031184	      2.29523888	     -0.27559027	     -0.01689851	      0.53148684	     26.37000127	    -12.91188575	     -5.00379625	    -65.51962975	     -4.50548702	     -0.67501119	     15.54787116	     15.22590200	     11.46617650	     -0.52158986	    -16.01343976	      2.71239130	      5.33784287	     10.56626105	      7.21661315	     -9.82608881	     -2.56240699
      5.02000000	     -8.85765717	      7.02593221	      2.69414501	     -0.26935955	     -0.01607156	      0.53083286	     26.96635615	    -12.70259978	     -5.39710148	    -64.91876552	     -4.36555356	     -0.29840229	     15.79063621	     14.48749287	     11.31890741	      0.15694369	    -15.51122128	      2.83636277	      5.16868626	     10.35811248	      7.18442195	     -9.59966150	     -3.15453415
      5.02500000	     -8.85806749	      6.75200620	      3.10826865	     -0.26308562	     -0.01528961	      0.53017710	     27.51671137	    -12.51384278	     -5.81785315	    -64.23795710	     -4.22865024	     -0.02726720	     15.99152562	     13.72808483	     11.17514031	      0.87944845	    -14.99568436	      2.94371120	      4.95827880	     10.10186149	      7.14966250	     -9.38797978	     -3.71862738
      5.03000000	     -8.86249810	      6.48558185	      3.51037370	     -0.25681278	     -0.01459080	      0.52955819	     28.05653019	    -12.32262201	     -6.21839271	    -63.49288877	     -4.10207018	      0.17381641	     16.12154801	     12.98488749	     11.01887230	      1.56570641	    -14.49328018	      3.06129750	      4.76834869	      9.84426475	      7.12465413	     -9.18503907	     -4.26496616
      5.03500000	     -8.86444071	      6.23094602	      3.90858857	     -0.25053058	     -0.01396745	      0.52896328	     28.57404920	    -12.14121290	     -6.61326608	    -62.68500605	     -3.98289503	      0.29181185	     16.17208648	     12.24405490	     10.85842182	      2.23973515	    -13.99479380	      3.18283038	      4.58819092	      9.57742095	      7.10200676	     -8.99684325	     -4.79578229
      5.04000000	     -8.86903390	      5.98552534	      4.29604955	     -0.24424870	     -0.01342616	      0.52840356	     29.07736652	    -11.96195046	     -6.99173687	    -61.81555035	     -3.87095679	      0.33942657	     16.13120118	     11.51608600	     10.68865713	      2.87544210	    -13.50574166	      3.31109756	      4.43285159	      9.32100123	      7.08678383	     -8.81934068	     -5.31355244
      5.04500000	     -8.90326513	      5.72472853	      4.64870529	     -0.23792970	     -0.01297292	      0.52787712	     29.59423749	    -11.75051747	     -7.33800686	    -60.87110025	     -3.77662935	      0.34736151	     16.01148437	     10.83750999	     10.47987186	      3.38185412	    -13.03181327	      3.44395140	      4.34084183	      9.13224876	      7.12333223	     -8.61812715	     -5.76630318
      5.05000000	     -8.90587355	      5.49743689	      5.02799495	     -0.23164357	     -0.01258367	      0.52737012	     30.05102067	    -11.58657968	     -7.70791261	    -59.87621565	     -3.68351487	      0.23644650	     15.79002388	     10.12227756	     10.29600902	      3.96755058	    -12.55409998	      3.58459791	      4.24483683	      8.92421466	      7.11225895	     -8.46596282	     -6.26869843
      5.05500000	     -8.90844174	      5.28631233	      5.37838343	     -0.22536234	     -0.01228025	      0.52688849	     30.49603972	    -11.42996687	     -8.05003560	    -58.82780165	     -3.59472572	      0.07678196	     15.47516756	      9.41188624	     10.11189302	      4.49760332	    -12.07337840	      3.71973763	      4.15277879	      8.71640102	      7.10303787	     -8.32094062	     -6.73694097
      5.06000000	     -8.91791745	      5.08374283	      5.70940650	     -0.21907933	     -0.01206714	      0.52644558	     30.92981121	    -11.27356682	     -8.37284709	    -57.72046445	     -3.51306259	     -0.13717402	     15.07504045	      8.71686919	      9.91977428	      4.97792969	    -11.59766868	      3.86929644	      4.09820587	      8.53898083	      7.10652637	     -8.18587112	     -7.17522570
      5.06500000	     -8.87918459	      4.92942516	      6.04262956	     -0.21284171	     -0.01191440	      0.52603490	     31.29390110	    -11.16847740	     -8.69357426	    -56.58070144	     -3.39956837	     -0.38331401	     14.46519885	      7.96650948	      9.76341794	      5.49395376	    -11.11681228	      4.02145929	      4.03008199	      8.32388539	      7.04035216	     -8.10603400	     -7.63903247
      5.07000000	     -8.89509404	      4.74506226	      6.33419334	     -0.20655612	     -0.01187119	      0.52566067	     31.69526598	    -11.01760685	     -8.99148595	    -55.36274021	     -3.32772528	     -0.67332382	     13.83432338	      7.29466517	      9.56037628	      5.87680771	    -10.65421339	      4.18855474	      4.03642058	      8.18945605	      7.05505167	     -7.98811346	     -8.02172351
      5.07500000	     -8.89172204	      4.57698256	      6.61047608	     -0.20028367	     -0.01188992	      0.52530540	     32.05164678	    -10.87774374	     -9.27979682	    -54.08643014	     -3.25126036	     -0.98624266	     13.11423452	      6.61034991	      9.36134653	      6.22457098	    -10.19911173	      4.36115872	      4.07042158	      8.08326107	      7.04784865	     -7.87981940	     -8.39370578
      5.08000000	     -8.89642241	      4.41310827	      6.86185712	     -0.19401145	     -0.01199435	      0.52497872	     32.39633632	    -10.73450795	     -9.55616784	    -52.75037741	     -3.18707796	     -1.33007979	     12.35855578	      5.94550348	      9.15636531	      6.51829743	     -9.75567175	      4.54209850	      4.12615517	      8.00629627	      7.05082377	     -7.77218681	     -8.73617561
      5.08500000	     -8.85949932	      4.25208578	      7.08916965	     -0.18768720	     -0.01213241	      0.52464965	     32.66318945	    -10.59460113	     -9.84768253	    -51.36933107	     -3.04626382	     -1.49710579	     11.26574441	      5.22976739	      8.94172650	      6.80678333	     -9.30353361	      4.73259505	      4.16663048	      7.90299404	      7.01759349	     -7.65389833	     -9.00735296
      5.09000000	     -8.96443052	      4.09526672	      7.26776219	     -0.18142771	     -0.01250270	      0.52439651	     33.08870771	    -10.43255643	    -10.05665286	    -49.90333457	     -3.04703462	     -1.95506997	     10.76903343	      4.70984903	      8.74017680	      6.96106787	     -8.90836579	      4.93215474	      4.24176575	      7.88962981	      7.13839691	     -7.54764491	     -9.27503203
      5.09500000	     -8.87970676	      3.96555060	      7.49586890	     -0.17521934	     -0.01273251	      0.52415401	     33.25476816	    -10.31558345	    -10.36582244	    -48.39313777	     -2.97365706	     -2.33028739	      9.84394874	      3.97775619	      8.53483508	      7.21585854	     -8.50486534	      5.14181427	      4.36877085	      7.84462351	      7.01982117	     -7.46974787	     -9.60591003
      5.10000000	     -8.90485984	      3.81372621	      7.66338845	     -0.16894819	     -0.01315710	      0.52393351	     33.52877111	    -10.16117737	    -10.63415182	    -46.82154016	     -2.92230241	     -2.67583558	      9.03097006	      3.37963965	      8.31689085	      7.39937748	     -8.12481651	      5.36979989	      4.44698846	      7.80851222	      7.04685824	     -7.36102330	     -9.84079405
      5.10500000	     -8.90380787	      3.66751418	      7.82098954	     -0.16268907	     -0.01362279	      0.52372140	     33.74531223	    -10.01144152	    -10.91731021	    -45.19250074	     -2.84717086	     -2.95480688	      8.21122013	      2.76581360	      8.09820417	      7.57251836	     -7.76517815	      5.60938935	      4.53075500	      7.77297758	      7.03865721	     -7.25155403	    -10.06391112
